<svg width="42" height="42" viewBox="0 0 42 42" fill="none" xmlns="http://www.w3.org/2000/svg">
  <path d="M21.875 10.5C23.3247 10.5 24.5 9.32475 24.5 7.875C24.5 6.42525 23.3247 5.25 21.875 5.25C20.4253 5.25 19.25 6.42525 19.25 7.875C19.25 9.32475 20.4253 10.5 21.875 10.5Z" fill="#7A7A79"/>
  <path d="M24.22 31.5175H26.25C27.2165 31.5175 28 32.301 28 33.2675C28 34.234 27.2165 35.0175 26.25 35.0175H17.5C16.5335 35.0175 15.75 34.234 15.75 33.2675C15.75 32.301 16.5335 31.5175 17.5 31.5175H20.72V15.7675H18.97C18.0035 15.7675 17.22 14.984 17.22 14.0175C17.22 13.051 18.0035 12.2675 18.97 12.2675H22.47C23.4365 12.2675 24.22 13.051 24.22 14.0175V31.5175Z" fill="#7A7A79"/>
</svg>