<svg width="42" height="42" viewBox="0 0 42 42" fill="none" xmlns="http://www.w3.org/2000/svg">
  <path d="M35.455 25.9525V11.8125C35.455 8.18813 32.5169 5.25 28.8925 5.25H13.5625C9.93813 5.25 7 8.18813 7 11.8125V30.2575C7 33.36 9.51504 35.875 12.6175 35.875H34.1425C34.8674 35.875 35.455 35.2874 35.455 34.5625C35.455 33.8376 34.8674 33.25 34.1425 33.25H12.6175C10.9648 33.25 9.625 31.9102 9.625 30.2575C9.625 28.6048 10.9648 27.265 12.6175 27.265H34.1425C34.8674 27.265 35.455 26.6774 35.455 25.9525Z" fill="#6F6F6E"/>
  <path d="M12.6175 28.945C11.8926 28.945 11.305 29.5326 11.305 30.2575C11.305 30.9824 11.8926 31.57 12.6175 31.57H31.99C32.7149 31.57 33.3025 30.9824 33.3025 30.2575C33.3025 29.5326 32.7149 28.945 31.99 28.945H12.6175Z" fill="#6F6F6E"/>
</svg>
