<svg width="18" height="23" viewBox="0 0 18 23" fill="none" xmlns="http://www.w3.org/2000/svg">
  <path d="M9.05625 9.84616H5.54625C5.08026 9.84616 4.7025 9.47716 4.7025 9.02198C4.7025 8.5668 5.08026 8.1978 5.54625 8.1978H9.05625C9.52224 8.1978 9.9 8.5668 9.9 9.02198C9.9 9.47716 9.52224 9.84616 9.05625 9.84616Z" fill="#6F6F6E"/>
  <path d="M5.54625 11.6154H12.4537C12.9197 11.6154 13.2975 11.9844 13.2975 12.4396C13.2975 12.8947 12.9197 13.2637 12.4537 13.2637H5.54625C5.08026 13.2637 4.7025 12.8947 4.7025 12.4396C4.7025 11.9844 5.08026 11.6154 5.54625 11.6154Z" fill="#6F6F6E"/>
  <path d="M11.5088 14.8352H5.54625C5.08026 14.8352 4.7025 15.2042 4.7025 15.6593C4.7025 16.1145 5.08026 16.4835 5.54625 16.4835H11.5088C11.9747 16.4835 12.3525 16.1145 12.3525 15.6593C12.3525 15.2042 11.9747 14.8352 11.5088 14.8352Z" fill="#6F6F6E"/>
  <path fill-rule="evenodd" clip-rule="evenodd" d="M11.5538 1.6265e-06C12.4641 -0.00122759 13.2158 0.694425 13.2638 1.58242C15.9355 1.87586 17.9658 4.06628 18 6.69231V17.7802C17.9938 20.6605 15.605 22.994 12.6562 23H5.34375C2.39505 22.994 0.00618828 20.6605 0 17.7802V6.69231C0.0342142 4.06628 2.06447 1.87586 4.73625 1.58242C4.78966 0.696914 5.53815 0.0042671 6.44625 1.6265e-06H11.5538ZM11.5762 1.58242H6.44625V2.89011H11.5762V1.58242ZM16.3125 17.7802C16.3125 19.7545 14.6774 21.3566 12.6562 21.3626H5.34375C3.32264 21.3566 1.68749 19.7545 1.6875 17.7802V6.69231C1.69198 4.94382 2.99178 3.45558 4.75875 3.17583C4.89685 3.97952 5.61198 4.56629 6.44625 4.56044H11.5537C12.388 4.56629 13.1031 3.97952 13.2412 3.17583C15.0082 3.45558 16.308 4.94382 16.3125 6.69231V17.7802Z" fill="#6F6F6E"/>
</svg>