<svg width="56" height="56" viewBox="0 0 56 56" fill="none" xmlns="http://www.w3.org/2000/svg">
  <path fill-rule="evenodd" clip-rule="evenodd" d="M11.6667 8.79667C11.6792 7.83542 12.4554 7.05923 13.4167 7.04667L13.3933 7C14.3598 7 15.1433 7.7835 15.1433 8.75V9.49667H29.75C31.8688 9.37721 33.6847 10.9948 33.81 13.1133V13.3C33.9352 15.4185 35.7512 17.0361 37.87 16.9167H39.9933C42.0995 16.7961 43.9149 18.3832 44.0767 20.4867V32.8533C43.9514 34.9718 42.1355 36.5895 40.0167 36.47H26.0167C23.8978 36.5895 22.0819 34.9718 21.9567 32.8533V32.7133C21.8314 30.5948 20.0155 28.9772 17.8967 29.0967H15.1667V48.4633C15.1667 49.4298 14.3832 50.2133 13.4167 50.2133C12.4502 50.2133 11.6667 49.4298 11.6667 48.4633V8.79667ZM30.1 13.2067C29.9857 13.1736 29.8643 13.1736 29.75 13.2067V13.2533H15.3767V25.4333H17.8967C21.9765 25.3256 25.4054 28.4756 25.6433 32.55C25.7591 32.5705 25.8776 32.5705 25.9933 32.55H39.9933C40.1091 32.5705 40.2276 32.5705 40.3433 32.55V20.4867C40.229 20.4536 40.1077 20.4536 39.9933 20.4867H37.87C33.7206 20.6048 30.2521 17.355 30.1 13.2067Z" fill="#6F6F6E"/>
</svg>