<svg width="43" height="43" viewBox="0 0 43 43" fill="none" xmlns="http://www.w3.org/2000/svg">
  <path fill-rule="evenodd" clip-rule="evenodd" d="M36.3529 12.5424L26.3912 5.1787C23.4773 3.05144 19.5226 3.05144 16.6087 5.1787L6.66498 12.5424C4.73973 13.9294 3.59425 16.1538 3.58331 18.5266V31.8387C3.69086 36.1266 7.25022 39.5176 11.5383 39.4174H31.4616C35.7497 39.5176 39.3091 36.1266 39.4166 31.8387V18.5087C39.4013 16.1461 38.264 13.9315 36.3529 12.5424ZM36.7291 31.8387C36.6223 34.6426 34.2658 36.8308 31.4616 36.7299H11.5383C8.7379 36.8209 6.38731 34.6382 6.27081 31.8387V18.5266C6.28037 17.0036 7.02004 15.5775 8.25956 14.6924L18.2033 7.34661C20.1671 5.91252 22.8328 5.91252 24.7966 7.34661L34.7404 14.7104C35.9789 15.5801 36.7199 16.9954 36.7291 18.5087V31.8387ZM13.4375 28.2195H29.5625C30.3046 28.2195 30.9062 28.8212 30.9062 29.5633C30.9062 30.3054 30.3046 30.907 29.5625 30.907H13.4375C12.6953 30.907 12.0937 30.3054 12.0937 29.5633C12.0937 28.8212 12.6953 28.2195 13.4375 28.2195Z" fill="#7A7A79"/>
</svg>