<svg width="45" height="45" viewBox="0 0 45 45" fill="none" xmlns="http://www.w3.org/2000/svg">
  <path d="M22.5 25.1812C23.2683 25.1812 24.029 25.0299 24.7387 24.7359C25.4485 24.4419 26.0934 24.011 26.6366 23.4678C27.1798 22.9246 27.6107 22.2797 27.9047 21.5699C28.1987 20.8601 28.35 20.0994 28.35 19.3312C28.35 18.563 28.1987 17.8023 27.9047 17.0925C27.6107 16.3827 27.1798 15.7378 26.6366 15.1946C26.0934 14.6514 25.4485 14.2205 24.7387 13.9265C24.029 13.6325 23.2683 13.4812 22.5 13.4812C20.9485 13.4812 19.4605 14.0975 18.3634 15.1946C17.2664 16.2917 16.65 17.7797 16.65 19.3312C16.65 20.8827 17.2664 22.3707 18.3634 23.4678C19.4605 24.5649 20.9485 25.1812 22.5 25.1812Z" stroke="#6F6F6E" stroke-width="1.5"/>
  <path d="M6.7875 15.9188C10.4813 -0.318745 34.5375 -0.299995 38.2125 15.9375C40.3688 25.4625 34.4438 33.525 29.25 38.5125C27.4351 40.2629 25.012 41.241 22.4906 41.241C19.9692 41.241 17.5461 40.2629 15.7313 38.5125C10.5563 33.525 4.63125 25.4438 6.7875 15.9188Z" stroke="#6F6F6E" stroke-width="3"/>
</svg>
