<svg width="90" height="90" viewBox="0 0 90 51" fill="none" xmlns="http://www.w3.org/2000/svg">
  <path d="M24 35.7732C24 37.003 23.0148 38 21.7995 38L7.71638 38C6.50108 38 5.5159 37.003 5.5159 35.7732C5.5159 34.5433 6.50108 33.5463 7.71638 33.5463L21.7995 33.5463C23.0148 33.5463 24 34.5433 24 35.7732Z" fill="#6F6F6E"/>
  <path d="M21.7995 17.4537L15.9315 17.4537C14.7162 17.4537 13.7311 16.4567 13.7311 15.2268C13.7311 13.997 14.7162 13 15.9315 13L21.7995 13C23.0148 13 24 13.997 24 15.2268C24 16.4567 23.0148 17.4537 21.7995 17.4537Z" fill="#6F6F6E"/>
  <path d="M21.7995 27.7268C23.0148 27.7268 24 26.7299 24 25.5C24 24.2702 23.0148 23.2732 21.7995 23.2732L2.20049 23.2732C0.985193 23.2732 -6.07679e-07 24.2701 -7.15196e-07 25.5C-8.22713e-07 26.7298 0.985192 27.7268 2.20049 27.7268L21.7995 27.7268Z" fill="#6F6F6E"/>
  <path fill-rule="evenodd" clip-rule="evenodd" d="M78 0H42C35.3726 0 30 5.37258 30 12V39C30 45.6274 35.3726 51 42 51H78C84.6274 51 90 45.6274 90 39V12C90 5.37258 84.6274 0 78 0ZM42 4.77H78C81.1972 4.77611 84.0074 6.88988 84.9 9.96L62.28 26.73C61.6601 27.3361 60.8195 27.6629 59.953 27.6345C59.0864 27.6062 58.269 27.2253 57.69 26.58L35.16 9.99C36.0353 6.92918 38.8167 4.80649 42 4.77ZM34.77 39C34.77 42.993 38.007 46.23 42 46.23H78C81.9813 46.2135 85.2 42.9813 85.2 39V14.91L64.8 29.91C63.4962 31.1238 61.7813 31.799 60 31.8C58.1482 31.7705 56.3734 31.0542 55.02 29.79L34.77 14.79V39Z" fill="#6F6F6E"/>
</svg>