<svg width="24" height="24" viewBox="0 0 24 24" fill="none" xmlns="http://www.w3.org/2000/svg">
  <path fill-rule="evenodd" clip-rule="evenodd" d="M20.2902 3.73973C19.8174 3.26642 19.1787 3.00058 18.5129 3C17.9361 3.00189 17.3774 3.20291 16.9294 3.56967L9.03699 10.0487L8.91064 10.1762C7.81061 11.2771 7.56659 12.9806 8.3126 14.351C8.00654 14.2567 7.68913 14.2052 7.36922 14.1979C5.50845 14.1979 4 15.7206 4 17.599V19.7246C4 20.429 4.56567 21 5.26346 21H7.36922C8.53885 20.9935 9.62147 20.3752 10.2293 19.3664C10.8371 18.3577 10.8832 17.1029 10.351 16.0515C10.6876 16.1662 11.0401 16.2265 11.3954 16.23C12.3283 16.2364 13.2243 15.8623 13.8802 15.1927L13.9645 15.0992L20.425 7.13226C21.2404 6.13109 21.1824 4.67177 20.2902 3.73973ZM7.40291 19.7246H5.29715V17.599C5.29715 16.425 6.23993 15.4733 7.40291 15.4733C8.56589 15.4733 9.50868 16.425 9.50868 17.599C9.50868 18.7729 8.56589 19.7246 7.40291 19.7246ZM13.0211 14.3L19.4816 6.32452C19.8776 5.82379 19.8377 5.10265 19.3888 4.64959C18.94 4.19653 18.2256 4.15622 17.7296 4.55598L9.83718 11.0775C8.95564 11.965 8.95375 13.4058 9.83296 14.2957C10.7122 15.1856 12.1395 15.1875 13.0211 14.3Z" fill="#6F6F6E"/>
  <path d="M13.2906 9.90411L10.7637 12.4549C10.5174 12.7039 10.5174 13.1072 10.7637 13.3562C11.0104 13.6048 11.4099 13.6048 11.6566 13.3562L14.1835 10.8054C14.3525 10.6464 14.4221 10.407 14.3649 10.181C14.3077 9.95511 14.133 9.77868 13.9091 9.72098C13.6853 9.66327 13.4481 9.7335 13.2906 9.90411Z" fill="#6F6F6E"/>
</svg>
